<svg xmlns="http://www.w3.org/2000/svg" width="1012" height="1006" viewBox="0 0 1012 1006" version="1.1"><path d="M 413.926 311.920 C 412.317 313.529, 411 315.712, 411 316.770 C 411 318.630, 414.070 323, 415.376 323 C 415.729 323, 419.727 325.381, 424.259 328.290 C 428.792 331.200, 434.181 334.368, 436.236 335.331 C 440.838 337.486, 441.190 338.136, 444.460 350.521 C 445.909 356.009, 447.493 361.850, 447.980 363.500 C 448.466 365.150, 449.396 368.525, 450.046 371 C 450.696 373.475, 451.593 376.400, 452.039 377.500 C 452.485 378.600, 453.128 380.850, 453.469 382.500 C 454.282 386.433, 454.950 389.129, 460.402 410.500 C 462.928 420.400, 464.995 429.047, 464.997 429.715 C 464.999 430.384, 463.711 432.409, 462.135 434.215 C 456.954 440.154, 455 445.254, 455 452.838 C 455 456.643, 455.647 461.305, 456.439 463.199 C 459.315 470.083, 469.008 476.807, 477.386 477.730 C 482.851 478.332, 491.682 474.969, 495.709 470.752 C 499.406 466.882, 503 460.657, 503 458.125 C 503 455.527, 505.817 453.367, 511 451.992 C 513.475 451.335, 517.300 450.233, 519.500 449.543 C 521.700 448.853, 525.525 447.730, 528 447.047 C 530.475 446.364, 533.281 445.399, 534.236 444.903 C 535.191 444.406, 537.077 444, 538.427 444 C 539.777 444, 541.160 443.550, 541.500 443 C 541.840 442.450, 543.448 442, 545.073 442 C 546.698 442, 548.809 441.595, 549.764 441.099 C 550.719 440.604, 556.675 438.997, 563 437.529 C 569.325 436.061, 575.625 434.480, 577 434.017 C 578.375 433.553, 581.657 432.581, 584.294 431.856 L 589.088 430.537 588.794 425.543 C 588.401 418.864, 586.269 417.690, 578.214 419.718 C 575.071 420.509, 571.375 421.380, 570 421.653 C 568.625 421.927, 566.600 422.533, 565.500 423 C 564.400 423.467, 562.263 424.108, 560.750 424.425 C 559.237 424.741, 556.763 425.259, 555.250 425.575 C 553.737 425.892, 551.600 426.536, 550.500 427.007 C 549.400 427.478, 547.150 428.059, 545.500 428.299 C 543.850 428.538, 536.200 430.429, 528.500 432.502 C 520.800 434.574, 513.033 436.484, 511.241 436.745 C 509.448 437.007, 507.734 437.621, 507.432 438.110 C 506.151 440.182, 499.974 438.993, 496.936 436.089 C 495.261 434.488, 490.877 431.932, 487.195 430.409 C 483.513 428.887, 480.183 427.382, 479.796 427.066 C 479.409 426.750, 477.717 421.094, 476.036 414.496 C 474.356 407.898, 472.569 401.600, 472.066 400.500 C 471.562 399.400, 470.892 397.262, 470.575 395.750 C 470.259 394.238, 469.741 391.762, 469.425 390.250 C 469.108 388.738, 468.464 386.600, 467.993 385.500 C 467.522 384.400, 466.942 382.150, 466.706 380.500 C 466.337 377.932, 463.423 366.738, 459.807 354 C 459.261 352.075, 458.581 349.033, 458.296 347.241 C 458.012 345.448, 457.379 343.734, 456.890 343.432 C 456.400 343.129, 456 341.585, 456 340 C 456 338.415, 455.550 336.840, 455 336.500 C 454.450 336.160, 454 334.868, 454 333.628 C 454 330.275, 450.272 327.151, 438 320.221 C 436.075 319.134, 431.575 316.568, 428 314.518 C 417.713 308.620, 417.302 308.544, 413.926 311.920 M 550.500 317.668 C 549.400 317.907, 547.600 318.499, 546.500 318.983 C 545.400 319.468, 543.150 320.063, 541.500 320.308 C 537.465 320.904, 512.473 327.498, 506.931 329.428 C 504.494 330.277, 501.514 330.977, 500.309 330.985 C 499.104 330.993, 497.871 331.400, 497.568 331.890 C 497.266 332.379, 495.552 332.997, 493.759 333.264 C 489.198 333.944, 473.860 338.048, 471.750 339.153 C 469.816 340.167, 469.472 344.002, 470.901 348.601 C 471.397 350.195, 473.046 356.900, 474.565 363.500 C 476.084 370.100, 477.703 375.928, 478.163 376.450 C 478.623 376.972, 479 378.291, 479 379.379 C 479 381.255, 480.336 386.107, 482.063 390.500 C 482.496 391.600, 483.127 393.850, 483.467 395.500 C 486.680 411.099, 491.450 427.252, 493.162 428.331 C 494.332 429.069, 495.959 429.036, 498.662 428.220 C 500.773 427.583, 506.325 426.107, 511 424.942 C 515.675 423.776, 521.075 422.382, 523 421.845 C 527.771 420.512, 533.931 418.991, 537.262 418.323 C 538.781 418.019, 540.271 417.371, 540.571 416.885 C 540.872 416.398, 542.666 416, 544.559 416 C 546.452 416, 548 415.550, 548 415 C 548 414.450, 549.206 414, 550.679 414 C 552.152 414, 554.740 413.585, 556.429 413.078 C 558.118 412.571, 562.200 411.434, 565.500 410.551 C 576.737 407.546, 579.122 406.640, 579.970 405.056 C 580.797 403.511, 580.425 400.732, 578.023 390.500 C 577.377 387.750, 576.608 384.033, 576.314 382.241 C 576.020 380.448, 575.379 378.734, 574.890 378.432 C 574.400 378.129, 574 376.360, 574 374.500 C 574 372.640, 573.550 370.840, 573 370.500 C 572.450 370.160, 572 368.759, 572 367.387 C 572 365.044, 567.506 347.411, 564 336 C 563.578 334.625, 562.671 331.475, 561.986 329 C 559.916 321.521, 558.135 318.269, 555.760 317.633 C 554.517 317.300, 553.275 317.073, 553 317.130 C 552.725 317.186, 551.600 317.428, 550.500 317.668 M 544.500 332.961 C 543.400 333.416, 540.587 334.285, 538.250 334.894 C 534.399 335.896, 531.922 336.553, 522.500 339.072 C 520.850 339.514, 515.407 341.028, 510.404 342.437 C 505.402 343.847, 500.366 345, 499.213 345 C 498.061 345, 496.840 345.450, 496.500 346 C 496.160 346.550, 494.810 347, 493.500 347 C 492.190 347, 490.840 347.450, 490.500 348 C 490.160 348.550, 488.956 349, 487.824 349 C 486.084 349, 485.870 349.424, 486.437 351.750 C 486.806 353.262, 487.509 356.300, 487.999 358.500 C 488.489 360.700, 489.365 364.413, 489.945 366.750 C 490.525 369.087, 491.383 372.688, 491.851 374.750 C 492.599 378.047, 494.733 386.431, 498.149 399.500 C 498.724 401.700, 499.601 404.281, 500.097 405.236 C 500.594 406.191, 501 407.824, 501 408.864 C 501 411.618, 503.434 413.331, 505.672 412.150 C 506.677 411.620, 510.425 410.506, 514 409.676 C 519.795 408.330, 529.223 405.931, 540.250 402.998 C 542.313 402.449, 545.913 401.499, 548.250 400.886 C 550.587 400.273, 553.400 399.408, 554.500 398.964 C 555.600 398.519, 557.706 397.895, 559.180 397.576 C 564.759 396.370, 565.012 395.198, 562.260 383.300 C 560.886 377.360, 559.365 371.719, 558.881 370.764 C 558.396 369.809, 558 367.890, 558 366.500 C 558 365.110, 557.605 363.191, 557.123 362.236 C 556.277 360.563, 555.711 358.732, 553.031 349 C 552.349 346.525, 551.389 343.466, 550.896 342.203 C 550.403 340.940, 549.986 338.915, 549.968 337.703 C 549.939 335.713, 547.856 331.900, 546.890 332.068 C 546.675 332.105, 545.600 332.507, 544.500 332.961 M 475 443 C 475 443.550, 474.395 444, 473.655 444 C 470.909 444, 469 447.564, 469 452.692 C 469 459.626, 472.260 463.014, 478.886 462.968 C 483.783 462.934, 485.555 462.004, 488.296 458.027 C 491.061 454.016, 490.477 449.649, 486.632 445.571 C 483.826 442.596, 482.574 442, 479.132 442 C 476.859 442, 475 442.450, 475 443 M 159 542.953 L 132.500 543.500 132.331 548 C 132.174 552.155, 132.367 551.908, 133.495 546.500 C 133.896 544.579, 134.718 544.500, 154.206 544.500 C 165.368 544.500, 178.550 544.282, 183.500 544.017 C 189.471 543.696, 192.437 543.885, 192.312 544.580 C 192.209 545.156, 191.570 550.395, 190.893 556.222 C 189.663 566.799, 189.656 566.819, 186.706 567.409 C 181.564 568.437, 181.418 568.301, 181.279 562.359 C 181.093 554.433, 180.043 553.669, 168.761 553.249 C 163.667 553.060, 158.921 553.301, 158.213 553.784 C 157.390 554.347, 156.765 557.878, 156.478 563.582 C 156.183 569.458, 156.332 571.647, 156.915 570 C 157.402 568.625, 157.845 565.002, 157.900 561.950 C 157.955 558.898, 158.540 555.860, 159.200 555.200 C 160.795 553.605, 173.387 553.642, 176.264 555.250 C 177.494 555.938, 178.670 556.595, 178.878 556.711 C 179.086 556.828, 179.536 559.528, 179.878 562.711 L 180.500 568.500 184.348 568.816 C 190.112 569.290, 191.574 567.385, 192.475 558.224 C 192.893 553.976, 193.295 548.700, 193.368 546.500 L 193.500 542.500 189.500 542.453 C 187.300 542.427, 173.575 542.652, 159 542.953 M 454.250 542.777 L 440 543.055 440.118 546.777 C 440.230 550.292, 440.272 550.338, 440.868 547.601 L 441.500 544.701 461.411 544.433 C 478.701 544.200, 482.139 544.417, 487.523 546.080 C 494.715 548.301, 497.973 550.602, 501.108 555.674 C 504.191 560.664, 504.311 569.848, 501.369 575.750 C 500.204 578.087, 499.568 580, 499.956 580 C 500.663 580, 501.771 577.937, 503.875 572.703 C 505.435 568.823, 505.281 561.916, 503.541 557.751 C 501.469 552.794, 493.033 545.526, 487.803 544.192 C 482.463 542.831, 472.689 542.418, 454.250 542.777 M 446.545 553.455 L 449 555.909 449 585.407 C 449 617.470, 448.673 619.715, 443.862 620.678 C 440.066 621.437, 437.783 624.240, 438.175 627.662 C 438.406 629.682, 439.076 630.528, 440.500 630.598 C 442.211 630.682, 442.233 630.634, 440.655 630.266 C 439.312 629.953, 438.968 629.245, 439.391 627.668 C 439.711 626.476, 439.979 624.994, 439.986 624.375 C 439.994 623.756, 441.238 622.997, 442.750 622.687 C 444.262 622.377, 446.400 621.458, 447.500 620.644 C 449.418 619.224, 449.512 617.827, 449.789 586.692 C 450.045 557.924, 449.894 554.037, 448.467 552.610 C 447.582 551.725, 446.235 551, 445.474 551 C 444.588 551, 444.972 551.881, 446.545 553.455 M 464.552 554.250 C 464.284 555.487, 463.938 563.025, 463.783 571 L 463.500 585.500 470 586.144 C 475.412 586.680, 477.100 586.455, 480.086 584.801 C 484.420 582.402, 488.961 575.731, 489.106 571.550 C 489.429 562.266, 487.738 558.345, 482.029 555.136 C 478.130 552.945, 468.239 550.943, 471 552.904 C 471.825 553.490, 473.470 553.976, 474.655 553.985 C 478.399 554.011, 484.843 558.149, 486.465 561.568 C 490.219 569.479, 486.993 579.572, 479.554 583.186 C 475.804 585.008, 474.417 585.182, 469.840 584.406 L 464.500 583.500 464.871 570.572 C 465.075 563.461, 465.606 556.374, 466.051 554.822 C 466.517 553.199, 466.473 552, 465.949 552 C 465.448 552, 464.819 553.013, 464.552 554.250 M 661.019 561.964 C 660.341 563.232, 660.251 565.196, 660.778 567.242 C 661.536 570.189, 662.041 570.548, 666.058 571 C 670.307 571.478, 670.486 571.631, 670.181 574.500 C 670.006 576.150, 668.769 580.863, 667.431 584.972 C 666.094 589.082, 665.043 593.132, 665.095 593.972 C 665.244 596.352, 671.921 575.831, 671.963 572.867 C 672.002 570.061, 670.091 569.040, 664.750 569.014 C 662.364 569.002, 662 568.603, 662 566 L 662 563 675.500 563 L 689 563 689 565.839 C 689 567.861, 688.313 568.992, 686.616 569.765 C 684.041 570.938, 684.239 570.475, 670.390 607.714 C 665.594 620.609, 661.912 629.093, 661 629.348 C 660.149 629.586, 660.474 629.818, 661.750 629.884 C 663.143 629.956, 664 629.424, 664 628.486 C 664 627.654, 664.397 626.191, 664.883 625.236 C 665.369 624.281, 666.269 622.263, 666.883 620.750 C 667.497 619.237, 668.424 616.987, 668.943 615.750 C 669.461 614.513, 671.512 608.775, 673.500 603 C 675.488 597.225, 677.539 591.487, 678.057 590.250 C 678.576 589.013, 679.503 586.763, 680.117 585.250 C 680.731 583.737, 681.631 581.719, 682.117 580.764 C 682.603 579.809, 683 578.287, 683 577.382 C 683 576.477, 684.623 574.206, 686.606 572.335 C 689.171 569.916, 690.254 568.005, 690.356 565.717 L 690.500 562.500 677.500 561.986 C 670.350 561.703, 663.960 561.128, 663.300 560.708 C 662.571 560.244, 661.676 560.736, 661.019 561.964 M 547.500 561.974 L 522.500 562.500 522.500 566.500 C 522.500 570.201, 522.724 570.525, 525.497 570.840 C 527.145 571.027, 528.826 571.702, 529.231 572.340 C 530.119 573.736, 530.233 614.529, 529.358 617.795 C 529.006 619.109, 527.088 620.935, 524.872 622.066 C 521.486 623.793, 521 624.482, 521 627.552 C 521 631.780, 522.567 632.610, 527.738 631.120 L 531.500 630.035 526.750 630.499 C 522.361 630.927, 522.001 630.792, 522.015 628.731 C 522.035 625.868, 522.825 624.845, 526.458 622.985 C 528.086 622.152, 529.728 620.352, 530.109 618.985 C 531.246 614.900, 531.121 573.094, 529.965 570.934 C 529.285 569.664, 527.871 569, 525.848 569 C 523.141 569, 522.840 568.727, 523.370 566.750 C 523.701 565.513, 523.979 564.163, 523.986 563.750 C 523.994 563.337, 534.688 562.968, 547.750 562.930 C 560.813 562.891, 572.400 562.473, 573.500 562 C 574.600 561.527, 574.825 561.210, 574 561.294 C 573.175 561.378, 561.250 561.684, 547.500 561.974 M 598.208 561.758 C 582.765 562.079, 582.114 562.335, 583.427 567.567 C 583.830 569.172, 585.130 570.498, 586.907 571.118 C 590.023 572.204, 591.530 575.044, 595.068 586.500 C 596.258 590.350, 597.629 594.281, 598.115 595.236 C 598.602 596.191, 599 597.852, 599 598.927 C 599 600.002, 599.450 601.160, 600 601.500 C 600.550 601.840, 601 603.190, 601 604.500 C 601 605.810, 601.450 607.160, 602 607.500 C 603.415 608.374, 603.503 608.743, 598.070 591.127 C 592.679 573.649, 591.126 570.499, 587.447 569.576 C 585.536 569.096, 585 568.310, 585 565.981 L 585 563 600.607 563 C 614.428 563, 616.145 563.181, 615.607 564.582 C 615.273 565.452, 615 566.802, 615 567.582 C 615 568.362, 614.070 569, 612.934 569 C 609.476 569, 607 570.902, 607 573.558 C 607 577.126, 614.271 605.687, 614.786 604.142 C 615.173 602.982, 611.601 587.236, 608.816 577.824 C 607.359 572.897, 608.047 571.602, 612.896 570.149 C 616.674 569.017, 617 568.645, 617 565.460 C 617 563.557, 616.587 562, 616.082 562 C 615.577 562, 614.564 561.879, 613.832 561.730 C 613.099 561.582, 606.069 561.594, 598.208 561.758 M 636.512 562 C 623.008 562.450, 621.489 562.681, 621.173 564.329 C 620.464 568.032, 621.922 571, 624.451 571 C 625.973 571, 627.627 572.072, 628.932 573.904 C 631.209 577.103, 631.495 579.135, 630.037 581.764 C 629.507 582.719, 626.800 590.228, 624.020 598.451 C 621.240 606.675, 618.415 613.743, 617.741 614.160 C 616.786 614.750, 616.782 615.182, 617.721 616.121 C 619.123 617.523, 618.461 619.053, 626.426 596 C 630.683 583.679, 631.975 578.688, 631.526 576.293 C 630.876 572.821, 626.862 569, 623.865 569 C 621.966 569, 621.517 567.423, 622.607 564.582 C 623.124 563.234, 625.493 563, 638.607 563 L 654 563 654.086 566.250 L 654.172 569.500 655.043 566.586 C 656.589 561.419, 656.274 561.341, 636.512 562 M 197.607 563.582 C 195.822 568.233, 197.452 571, 201.975 571 C 203.658 571, 203.814 572.602, 204.181 593.750 C 204.596 617.604, 204.887 619.245, 209.655 624.556 C 212.206 627.399, 216.155 630, 217.918 630 C 218.729 630, 217.343 628.701, 214.840 627.113 C 211.814 625.195, 209.569 622.742, 208.144 619.798 C 206.164 615.708, 206 613.787, 206 594.749 C 206 583.409, 205.561 572.976, 205.025 571.565 C 204.264 569.563, 203.360 569, 200.908 569 C 198.138 569, 197.838 568.734, 198.370 566.750 C 198.701 565.513, 198.979 564.163, 198.986 563.750 C 198.994 563.337, 205.127 563, 212.617 563 L 226.233 563 225.630 565.250 C 225.299 566.487, 225.021 567.837, 225.014 568.250 C 225.006 568.663, 224.395 569, 223.655 569 C 219.972 569, 219.183 572.139, 218.447 589.723 C 217.657 608.569, 218.429 614.013, 222.516 618.423 C 228.063 624.408, 241.314 623.653, 245.717 617.102 C 247.909 613.840, 248 612.890, 248 593.286 C 248 581.124, 247.581 572.086, 246.965 570.934 C 246.299 569.690, 244.873 569, 242.965 569 C 239.968 569, 239.353 567.849, 240.607 564.582 C 241.113 563.262, 243.185 563, 253.107 563 L 265 563 265 566 C 265 568.304, 264.549 569, 263.057 569 C 258.685 569, 258 572.175, 257.994 592.473 C 257.991 602.938, 257.524 613.174, 256.956 615.219 C 255.513 620.415, 251.453 624.864, 245.541 627.727 C 240.937 629.957, 240.800 630.116, 243.964 629.566 C 249.271 628.644, 253.649 625.054, 256.454 619.325 C 258.931 614.268, 259 613.566, 259 593.575 L 259 573.025 263 570.500 C 266.224 568.465, 267 567.390, 267 564.959 L 267 561.944 253.250 562.222 L 239.500 562.500 239.500 566.500 C 239.500 570.201, 239.724 570.525, 242.497 570.840 C 244.145 571.027, 245.826 571.702, 246.231 572.340 C 247.480 574.303, 247.129 611.002, 245.827 614.603 C 244.242 618.986, 240.952 620.500, 233.019 620.497 C 226.004 620.495, 225.095 620.033, 221.716 614.753 C 220.165 612.329, 219.990 609.690, 220.229 592.333 L 220.500 572.661 223.500 571.006 C 225.856 569.707, 226.567 568.563, 226.810 565.676 L 227.121 562 212.667 562 C 200.410 562, 198.122 562.240, 197.607 563.582 M 275.897 564.750 C 274.559 568.246, 275.799 570.339, 279.607 571.009 L 282.500 571.518 282.803 591.009 C 283.194 616.154, 282.742 620.075, 279.203 622.270 C 277.510 623.320, 277.082 623.957, 278.059 623.973 C 283.697 624.070, 284.866 618.635, 284.827 592.500 C 284.795 570.892, 284.541 569.609, 280.211 569.187 C 277.396 568.912, 277 568.511, 277 565.937 L 277 563 291.500 563 L 306 563 306 565.921 C 306 568.354, 305.499 568.951, 302.992 569.502 C 301.337 569.865, 299.460 571.138, 298.821 572.331 C 298.076 573.720, 297.492 582.850, 297.195 597.724 L 296.732 620.948 299.433 621.975 C 303.206 623.409, 312.464 622.148, 314.914 619.866 C 316.018 618.837, 317.440 616.084, 318.075 613.748 C 318.709 611.412, 319.366 608.994, 319.534 608.376 C 319.816 607.344, 326.781 605.447, 327.532 606.199 C 327.712 606.379, 327.104 611.921, 326.180 618.513 L 324.500 630.500 315.500 630.313 C 307.984 630.156, 307.242 630.268, 311 630.989 C 313.475 631.463, 317.583 631.885, 320.129 631.926 C 325.659 632.014, 326.131 631.181, 328.023 618 C 329.712 606.238, 329.480 605.500, 324.095 605.500 C 319.294 605.500, 318.973 605.834, 316.877 613 C 315.073 619.165, 313.864 620.111, 306.992 620.734 C 297.370 621.607, 297.583 622.172, 298.366 597.775 C 299.054 576.391, 299.714 572.395, 302.735 571.322 C 306.005 570.162, 308 567.708, 308 564.845 L 308 562 292.475 562 L 276.950 562 275.897 564.750 M 334.050 563.440 C 333.393 564.231, 333.001 566.144, 333.178 567.690 C 333.448 570.048, 334.023 570.550, 336.750 570.813 C 338.944 571.025, 340.040 571.675, 340.124 572.813 C 340.658 580.070, 340.885 609.689, 340.444 614.500 C 339.942 619.978, 339.594 620.697, 336.447 622.759 C 333.776 624.510, 333 625.699, 333 628.041 C 333 631.696, 334.932 632.657, 339.306 631.176 L 342.500 630.095 338.500 630.298 C 335.816 630.433, 334.533 630.089, 334.600 629.250 C 334.655 628.563, 334.767 627.149, 334.850 626.108 C 334.938 624.999, 336.022 623.960, 337.471 623.597 C 338.830 623.255, 340.413 622.097, 340.989 621.021 C 341.658 619.770, 341.939 610.142, 341.768 594.283 L 341.500 569.500 338.250 569.187 C 335.392 568.911, 335 568.519, 335 565.937 L 335 563 349.500 563 C 363.773 563, 364 563.034, 364 565.200 C 364 566.866, 364.281 567.119, 365.158 566.242 C 366.034 565.366, 366.005 564.711, 365.035 563.542 C 363.217 561.352, 335.858 561.261, 334.050 563.440 M 697.799 563.750 C 696.909 567.333, 698.462 570.486, 701.278 570.815 C 703.334 571.055, 704.196 571.889, 704.898 574.315 L 705.820 577.500 705.910 574.450 C 706.017 570.836, 704.463 569, 701.300 569 C 699.414 569, 699 568.463, 699 566.018 L 699 563.036 723.250 562.749 L 747.500 562.463 722.867 562.231 C 700.127 562.018, 698.200 562.135, 697.799 563.750 M 750.660 567.334 C 750.206 570.543, 750.075 573.409, 750.369 573.702 C 751.273 574.606, 752.157 569.523, 751.812 565.405 C 751.506 561.762, 751.429 561.892, 750.660 567.334 M 766.116 564.250 C 766.203 565.943, 766.345 566.067, 766.689 564.750 C 767.098 563.185, 768.675 563, 781.573 563 C 794.652 563, 795.999 563.163, 795.985 564.750 C 795.964 567.117, 795.030 568.229, 791.571 570 C 789.833 570.890, 788.330 572.670, 787.873 574.378 C 787.450 575.961, 786.810 586.536, 786.449 597.878 C 785.658 622.780, 785.602 622.619, 794.940 622.276 C 798.292 622.153, 801.922 621.577, 803.007 620.996 C 805.412 619.709, 807.598 615.661, 808.508 610.809 C 809.101 607.648, 809.633 607.104, 812.696 606.529 C 814.626 606.167, 816.430 606.096, 816.705 606.372 C 817.423 607.090, 814.821 628.290, 813.857 629.572 C 813.361 630.231, 809.672 630.538, 804.275 630.367 C 797.240 630.145, 796.293 630.268, 799.500 630.987 C 805.452 632.323, 813.606 632.195, 814.709 630.750 C 816.082 628.952, 818 617.229, 818 610.635 L 818 605 814.155 605 C 809.575 605, 807.002 607.364, 806.995 611.579 C 806.987 616.362, 803.208 620.109, 797.775 620.722 C 795.214 621.011, 791.967 620.958, 790.560 620.604 L 788 619.962 788.096 600.731 C 788.203 579.347, 789.336 571.743, 792.504 571.155 C 795.760 570.551, 797 568.958, 797 565.378 L 797 562 781.500 562 C 766.058 562, 766 562.008, 766.116 564.250 M 823.430 564.421 C 822.354 568.711, 823.263 570.475, 826.724 570.811 C 829.532 571.083, 830.017 571.571, 830.608 574.726 C 830.980 576.708, 830.976 587.593, 830.600 598.915 L 829.915 619.500 826.707 622.205 C 823.953 624.527, 823.821 624.828, 825.774 624.332 C 827.025 624.014, 828.937 622.624, 830.024 621.242 C 831.866 618.901, 832 617.120, 832 595.065 C 832 569.602, 831.880 569, 826.800 569 C 823.973 569, 823.374 567.794, 824.607 564.582 C 825.122 563.240, 827.415 563, 839.724 563 L 854.233 563 853.630 565.250 C 853.299 566.487, 853.021 567.802, 853.014 568.171 C 853.006 568.539, 851.684 569.130, 850.076 569.483 C 845.740 570.436, 845.087 573.644, 844.397 597.383 C 843.664 622.608, 843.665 622.610, 852.415 622.308 C 861.056 622.010, 863.169 620.553, 865.439 613.326 C 867.232 607.619, 867.637 607.103, 870.792 606.511 C 872.669 606.159, 874.420 606.087, 874.683 606.350 C 875.284 606.950, 872.940 625.746, 871.906 628.628 C 871.188 630.627, 870.574 630.737, 861.821 630.427 C 854.377 630.163, 853.406 630.273, 857 630.974 C 863.764 632.293, 871.611 632.182, 872.747 630.750 C 873.786 629.442, 875.128 619.047, 875.363 610.500 C 875.499 605.529, 875.481 605.498, 872.156 605.180 C 868.460 604.825, 865 607.172, 865 610.033 C 865 613.561, 861.912 619.083, 859.407 620.035 C 856.312 621.212, 848.982 621.275, 847.194 620.141 C 846.165 619.488, 845.970 614.767, 846.275 597.906 C 846.489 586.133, 846.894 575.600, 847.177 574.500 C 847.459 573.400, 849.335 571.633, 851.345 570.574 C 854.432 568.947, 855 568.132, 855 565.324 L 855 562 839.519 562 L 824.038 562 823.430 564.421 M 575.670 565.250 C 574.625 569.545, 573.931 580.569, 574.835 578.500 C 575.316 577.400, 576.012 573.462, 576.382 569.750 C 577.051 563.045, 576.718 560.940, 575.670 565.250 M 358.055 570.754 C 356.042 572.384, 355.863 573.565, 355.521 587.504 C 355.249 598.549, 355.363 600.656, 355.952 595.500 C 356.392 591.650, 356.822 585.350, 356.908 581.500 C 357.072 574.107, 357.946 572.185, 362 570.299 C 364.335 569.212, 364.359 569.131, 362.361 569.068 C 361.184 569.030, 359.247 569.789, 358.055 570.754 M 646.553 570.337 C 644.978 571.489, 644.868 572.217, 645.759 575.587 L 646.793 579.500 646.897 575.250 C 646.978 571.915, 647.377 570.997, 648.750 570.985 C 649.712 570.976, 651.175 570.533, 652 570 C 653.184 569.235, 652.960 569.027, 650.941 569.015 C 649.534 569.007, 647.559 569.602, 646.553 570.337 M 766.550 569.915 C 767.072 570.419, 768.625 570.981, 770 571.165 L 772.500 571.500 772.500 595.323 L 772.500 619.146 769.241 621.823 C 767.449 623.295, 765.993 624.950, 766.006 625.500 C 766.022 626.165, 766.277 626.165, 766.765 625.498 C 767.169 624.948, 768.700 623.879, 770.166 623.125 C 771.632 622.370, 773.088 620.795, 773.402 619.626 C 773.716 618.457, 773.979 607.128, 773.986 594.450 C 774.001 569.496, 773.896 569, 768.600 569 C 766.760 569, 765.967 569.354, 766.550 569.915 M 544.607 572.582 C 544.273 573.452, 544.054 576.039, 544.120 578.332 L 544.240 582.500 545.293 578 C 545.872 575.525, 546.830 573.160, 547.423 572.745 C 548.959 571.668, 562.354 573.062, 563.235 574.391 C 563.639 575.001, 563.976 577.053, 563.985 578.950 C 563.996 581.506, 564.292 582.108, 565.125 581.275 C 565.821 580.579, 565.991 578.766, 565.572 576.529 C 564.720 571.989, 562.390 571, 552.542 571 C 546.782 571, 545.084 571.339, 544.607 572.582 M 720.667 571.667 C 719.121 573.212, 720.469 573.500, 729.249 573.500 L 738.500 573.500 739.670 578 L 740.839 582.500 740.920 578.750 C 741.051 572.640, 738.564 571, 729.167 571 C 724.858 571, 721.033 571.300, 720.667 571.667 M 719.180 583.887 L 719 592.275 731.019 591.780 L 743.037 591.285 742.397 594.892 C 742.045 596.877, 741.468 598.821, 741.115 599.214 C 740.762 599.606, 735.529 600.056, 729.486 600.214 L 718.500 600.500 718.216 610.099 C 717.858 622.160, 718.212 622.556, 729.166 622.359 C 738.889 622.184, 741.557 620.687, 743.220 614.469 C 744.369 610.173, 744.561 610, 748.207 610 C 751.671 610, 752.003 610.239, 752.030 612.750 C 752.057 615.160, 752.191 615.276, 753.114 613.689 C 754.528 611.258, 753.591 609.186, 750.754 608.474 C 746.766 607.474, 743.319 609.504, 741.947 613.660 C 739.903 619.853, 738.694 620.500, 729.152 620.500 L 720.657 620.500 719.846 617.500 C 719.401 615.850, 719.317 611.462, 719.661 607.750 L 720.287 601 731.108 601 C 740.988 601, 742.025 600.822, 743.025 598.954 C 743.627 597.828, 743.980 595.466, 743.810 593.704 L 743.500 590.500 732 590.500 L 720.500 590.500 719.930 583 L 719.360 575.500 719.180 583.887 M 495.921 583.599 C 494.589 585.024, 491.587 587.315, 489.250 588.690 C 486.727 590.174, 485.264 591.660, 485.651 592.345 C 486.009 592.980, 489.374 598.467, 493.129 604.538 C 502.240 619.268, 504.637 621.640, 513.126 624.327 C 514.267 624.688, 514.605 625.616, 514.258 627.432 C 513.761 630.029, 512.725 630.549, 506.500 631.326 C 504.453 631.581, 504.960 631.748, 508.095 631.850 C 511.414 631.958, 513.150 631.492, 514.345 630.171 C 517.775 626.381, 515.992 623.391, 509.154 621.465 C 506.375 620.682, 499 613.357, 499 611.379 C 499 610.621, 498.602 610, 498.117 610 C 497.631 610, 496.963 609.212, 496.632 608.250 C 496.302 607.288, 494.890 604.700, 493.494 602.500 C 492.099 600.300, 490.204 597.029, 489.284 595.231 C 487.623 591.985, 487.632 591.948, 490.490 589.731 C 495.306 585.998, 499.343 582.010, 498.828 581.495 C 498.560 581.227, 497.252 582.174, 495.921 583.599 M 647.014 581.750 C 647.041 583.282, 655.925 616.258, 656.452 616.786 C 656.754 617.087, 657.270 617.063, 657.600 616.733 C 658.669 615.664, 663.080 602.747, 662.556 602.222 C 662.276 601.943, 661.771 602.566, 661.433 603.607 C 661.095 604.648, 660.450 606.400, 660 607.500 C 659.550 608.600, 658.919 610.316, 658.598 611.313 C 657.784 613.841, 656.279 612.592, 655.495 608.739 C 654.607 604.373, 652.948 598.883, 651.877 596.764 C 651.395 595.809, 651 593.698, 651 592.073 C 651 590.448, 650.550 588.840, 650 588.500 C 649.450 588.160, 649 586.334, 649 584.441 C 649 582.548, 648.550 581, 648 581 C 647.450 581, 647.006 581.337, 647.014 581.750 M 156 583.130 C 156 583.938, 159.883 584.129, 169.606 583.799 L 183.213 583.338 182.583 588.419 C 182.141 591.983, 182.254 593.052, 182.961 592 C 183.516 591.175, 183.976 588.587, 183.985 586.250 L 184 582 170 582 C 160.256 582, 156 582.344, 156 583.130 M 419 589 C 417.625 589.440, 414.250 589.852, 411.500 589.916 C 408.750 589.979, 405.825 590.467, 405 591 C 402.944 592.329, 405.015 592.261, 417.500 590.589 C 423 589.853, 427.700 589.431, 427.944 589.652 C 428.188 589.873, 428.293 591.955, 428.177 594.277 C 428.023 597.380, 428.232 598.102, 428.968 597 C 430.102 595.301, 430.295 591.932, 429.393 589.582 C 428.734 587.864, 423.468 587.569, 419 589 M 544.004 591.389 C 544.002 591.887, 549.071 592.055, 555.500 591.771 L 567 591.264 567 594.050 C 567 599.888, 566.763 600, 554.393 600 L 543 600 543 610.531 C 543 622.920, 542.675 622.580, 554.294 622.336 C 563.850 622.135, 566.242 620.778, 567.979 614.576 C 569.218 610.150, 569.387 610, 573.130 610 C 575.258 610, 576.992 610.337, 576.983 610.750 C 576.973 611.163, 576.306 615.521, 575.501 620.435 C 574.695 625.349, 574.243 629.576, 574.495 629.828 C 575.124 630.457, 575.779 628.252, 576.374 623.500 C 576.650 621.300, 577.183 617.160, 577.560 614.300 C 578.230 609.213, 578.184 609.084, 575.442 608.396 C 571.593 607.430, 567.824 609.739, 566.800 613.690 C 565.419 619.023, 561.841 621.002, 553.615 620.985 C 549.702 620.976, 545.919 620.601, 545.209 620.150 C 544.273 619.557, 543.998 616.873, 544.209 610.415 L 544.500 601.500 555.671 601 C 561.815 600.725, 567.177 600.164, 567.585 599.753 C 567.993 599.342, 568.366 597.092, 568.413 594.753 L 568.500 590.500 556.254 590.500 C 549.519 590.500, 544.006 590.900, 544.004 591.389 M 155.667 593.667 C 155.300 594.033, 155 599.851, 155 606.595 C 155 621.397, 155.355 622, 164.071 622 C 170.407 622, 170.797 622.424, 169.370 627.750 C 168.917 629.439, 167.985 630.029, 165.633 630.116 C 163.791 630.184, 163.254 630.427, 164.329 630.705 C 165.335 630.964, 167.248 630.904, 168.579 630.570 C 170.746 630.026, 171 629.424, 171 624.845 L 171 619.728 166.568 620.336 C 164.130 620.670, 160.755 620.462, 159.068 619.874 L 156 618.804 156 606.902 C 156 597.206, 156.267 595, 157.441 595 C 158.234 595, 159.160 594.550, 159.500 594 C 160.181 592.899, 156.734 592.599, 155.667 593.667 M 634.435 598.250 C 633.485 601.138, 632.501 604.063, 632.247 604.750 C 631.994 605.438, 632.284 606, 632.893 606 C 633.502 606, 634 604.965, 634 603.700 C 634 602.435, 634.406 600.972, 634.903 600.450 C 635.400 599.928, 636.005 598.600, 636.248 597.500 C 636.746 595.249, 636.557 594.851, 639.866 605.131 C 641.040 608.778, 642 612.689, 642 613.822 C 642 614.955, 642.450 616.160, 643 616.500 C 643.550 616.840, 644 618.190, 644 619.500 C 644 620.810, 644.450 622.160, 645 622.500 C 645.550 622.840, 646 622.772, 646 622.349 C 646 620.240, 637.570 593, 636.917 593 C 636.501 593, 635.384 595.362, 634.435 598.250 M 463 606.891 C 463 619.187, 463.120 619.970, 465.223 621.443 C 466.445 622.299, 468.519 623, 469.832 623 C 471.971 623, 472.176 623.363, 471.810 626.500 C 471.585 628.425, 471.761 630, 472.201 630 C 472.640 630, 473 628.217, 473 626.039 C 473 622.280, 472.800 622.023, 469.103 621.028 C 466.959 620.451, 464.934 619.271, 464.603 618.407 C 464.271 617.543, 464 611.897, 464 605.861 L 464 594.885 468.197 595.193 C 472.128 595.480, 472.554 595.817, 474.917 600.500 C 476.305 603.250, 477.685 605.725, 477.984 606 C 478.282 606.275, 479.646 608.750, 481.013 611.500 C 482.381 614.250, 483.837 616.650, 484.250 616.833 C 484.663 617.017, 485 617.572, 485 618.068 C 485 618.564, 486.396 621.239, 488.103 624.012 C 490.987 628.701, 495.152 632, 498.185 632 C 498.891 632, 497.901 631.167, 495.984 630.149 C 491.700 627.873, 488.533 623.281, 480.073 607.086 L 473.500 594.500 468.250 594.198 L 463 593.895 463 606.891 M 415 600.580 L 405.500 601.880 416 601.381 C 421.775 601.107, 426.928 600.459, 427.450 599.941 C 428.595 598.807, 427.575 598.859, 415 600.580 M 395.906 603.306 C 396.481 603.881, 398.303 603.837, 400.669 603.192 L 404.500 602.146 399.738 602.261 C 396.798 602.331, 395.331 602.731, 395.906 603.306 M 378 606.054 C 378 606.848, 379.122 607.012, 381.500 606.566 L 385 605.909 384.925 609.705 C 384.883 611.792, 384.321 617.325, 383.675 622 L 382.500 630.500 373 630.300 C 365.441 630.141, 364.317 630.282, 367.500 630.992 C 369.700 631.483, 374.033 631.911, 377.129 631.942 C 382.372 631.996, 382.829 631.812, 383.800 629.250 C 384.856 626.466, 386.106 616.821, 386.361 609.500 L 386.500 605.500 382.250 605.193 C 379.499 604.993, 378 605.297, 378 606.054 M 354.427 612.822 C 354.601 616.848, 355.276 620.673, 355.927 621.322 C 357.628 623.015, 368.605 622.489, 371.528 620.574 C 374.657 618.523, 375.822 616.228, 376.449 610.875 C 376.845 607.494, 376.779 607.181, 376.157 609.500 C 374.732 614.813, 372.561 618.410, 370 619.706 C 367.176 621.134, 359.180 621.401, 357.182 620.134 C 356.457 619.674, 355.469 616.193, 354.987 612.399 L 354.111 605.500 354.427 612.822 M 627.604 617.689 C 625.093 625.223, 623.324 629.023, 622.188 629.323 C 620.900 629.663, 620.995 629.795, 622.589 629.884 C 624.942 630.015, 625.833 628.435, 628.446 619.500 C 629.411 616.200, 630.657 612.532, 631.216 611.349 C 631.775 610.165, 632.030 608.590, 631.783 607.849 C 631.535 607.107, 629.655 611.535, 627.604 617.689 M 705.178 609.500 C 704.627 617.756, 703.759 620.073, 700.612 621.685 C 696.788 623.644, 696.035 624.724, 696.015 628.281 C 695.996 631.839, 697.631 632.412, 704.193 631.149 L 709.500 630.128 703.500 630.314 C 699.223 630.447, 697.529 630.141, 697.600 629.250 C 697.655 628.563, 697.768 627.149, 697.850 626.108 C 697.938 624.996, 699.024 623.960, 700.487 623.593 C 704.491 622.588, 706.157 619.022, 705.742 612.345 C 705.542 609.130, 705.288 607.850, 705.178 609.500 M 603.092 611.264 C 603.042 612.784, 603.412 614.809, 603.916 615.764 C 604.420 616.719, 605.671 620.650, 606.697 624.500 C 608.330 630.630, 608.874 631.537, 611.069 631.796 C 612.449 631.959, 614.685 631.627, 616.039 631.058 C 618.064 630.208, 617.702 630.123, 614 630.579 L 609.500 631.134 606.342 619.817 C 604.606 613.593, 603.143 609.744, 603.092 611.264 M 140.253 616.991 C 139.717 618.360, 137.538 620.385, 135.412 621.491 C 131.427 623.562, 129.194 627.458, 130.317 630.383 C 131.004 632.174, 136.636 632.457, 141 630.920 C 142.722 630.314, 141.616 630.198, 137.448 630.547 L 131.395 631.055 131.802 627.570 C 132.145 624.633, 132.748 623.908, 135.640 622.954 C 139.273 621.755, 142.511 617.927, 141.708 615.782 C 141.417 615.004, 140.845 615.478, 140.253 616.991 M 750.660 621.334 C 750.206 624.543, 750.075 627.409, 750.369 627.702 C 751.273 628.606, 752.157 623.523, 751.812 619.405 C 751.506 615.762, 751.429 615.892, 750.660 621.334 M 275.617 626.192 C 273.513 630.721, 277.604 633.384, 283.039 631.022 C 285.151 630.104, 284.907 630.026, 281.313 630.478 C 277.202 630.994, 277.120 630.945, 276.765 627.752 C 276.488 625.269, 276.216 624.900, 275.617 626.192 M 743 630 L 736.500 630.655 742.691 630.827 C 746.096 630.922, 749.160 630.550, 749.500 630 C 749.840 629.450, 749.979 629.078, 749.809 629.173 C 749.639 629.268, 746.575 629.640, 743 630 M 222.351 631.235 C 223.818 632.173, 235.907 632.093, 238.359 631.128 C 239.382 630.726, 235.939 630.420, 230.710 630.449 C 225.480 630.477, 221.718 630.831, 222.351 631.235 M 562.728 630.722 C 564.503 630.943, 567.653 630.946, 569.728 630.730 C 571.802 630.513, 570.350 630.333, 566.500 630.328 C 562.650 630.324, 560.952 630.501, 562.728 630.722 M 650.500 631 L 647.500 631.763 651 631.866 C 652.925 631.923, 655.175 631.533, 656 631 C 657.234 630.202, 657.146 630.049, 655.500 630.134 C 654.400 630.190, 652.150 630.580, 650.500 631" stroke="none" fill="#ce8657" fill-rule="evenodd"/><path d="M 178.500 544.145 C 172.450 544.630, 159.967 544.908, 150.760 544.764 C 132.815 544.481, 133 544.430, 133 549.690 C 133 551.891, 133.325 552.135, 135.521 551.584 C 136.907 551.236, 138.932 551.428, 140.021 552.011 C 141.930 553.033, 142 554.205, 142 585.313 C 142 620.992, 142.025 620.847, 135.601 622.967 C 132.827 623.882, 132.140 624.671, 131.834 627.295 L 131.459 630.504 149.980 630.148 C 160.166 629.952, 168.632 629.669, 168.793 629.520 C 168.954 629.370, 169.350 627.617, 169.674 625.624 L 170.262 622 164.202 622 C 155.183 622, 154.883 621.469, 155.221 606.149 L 155.500 593.500 168.631 593.222 L 181.761 592.944 182.381 589.847 C 183.753 582.985, 184.425 583.297, 169.370 583.807 L 155.740 584.270 156.183 569.560 C 156.522 558.261, 156.958 554.624, 158.063 553.877 C 158.853 553.343, 163.667 553.060, 168.761 553.249 C 180.043 553.669, 181.093 554.433, 181.279 562.359 C 181.418 568.301, 181.564 568.437, 186.706 567.409 C 189.656 566.819, 189.663 566.799, 190.893 556.222 C 191.570 550.395, 192.209 545.175, 192.312 544.623 C 192.577 543.205, 190.929 543.148, 178.500 544.145 M 441.505 545 C 441.338 545.275, 441.043 546.850, 440.851 548.500 C 440.516 551.367, 440.668 551.500, 444.286 551.500 C 446.553 551.500, 448.462 552.102, 449.043 553 C 449.634 553.913, 449.913 567.155, 449.757 586.832 C 449.510 617.846, 449.419 619.223, 447.500 620.644 C 446.400 621.458, 444.262 622.377, 442.750 622.687 C 441.238 622.997, 439.994 623.756, 439.986 624.375 C 439.979 624.994, 439.698 626.524, 439.363 627.775 L 438.753 630.051 455.127 629.775 L 471.500 629.500 471.813 626.250 C 472.086 623.420, 471.824 623, 469.786 623 C 468.498 623, 466.445 622.299, 465.223 621.443 C 463.120 619.970, 463 619.187, 463 606.891 L 463 593.895 468.250 594.198 L 473.500 594.500 480.073 607.086 C 491.818 629.573, 494.880 632.564, 505 631.445 C 512.925 630.568, 513.725 630.218, 514.266 627.389 C 514.605 625.617, 514.258 624.686, 513.126 624.327 C 504.637 621.640, 502.240 619.268, 493.129 604.538 C 489.374 598.467, 486.009 592.980, 485.651 592.345 C 485.263 591.657, 486.785 590.144, 489.416 588.602 C 507.850 577.799, 508.432 554.492, 490.456 547.027 C 484.763 544.662, 483.559 544.552, 463.155 544.527 C 451.415 544.512, 441.672 544.725, 441.505 545 M 464.585 554.117 C 464.299 555.428, 463.938 563.025, 463.783 571 L 463.500 585.500 470 586.144 C 477.948 586.931, 482.284 584.957, 486.336 578.708 C 488.893 574.764, 489.450 572.014, 489.009 565.500 C 488.508 558.107, 481.846 553.078, 471.446 552.244 C 465.393 551.758, 465.081 551.843, 464.585 554.117 M 548.362 562.749 C 524.343 563.034, 524.221 563.046, 523.626 565.268 C 522.684 568.780, 522.822 569, 525.965 569 C 527.873 569, 529.299 569.690, 529.965 570.934 C 531.121 573.094, 531.246 614.900, 530.109 618.985 C 529.728 620.352, 528.086 622.152, 526.458 622.985 C 522.890 624.812, 522.036 625.873, 522.014 628.500 C 521.999 630.457, 522.556 630.493, 547.730 630.186 C 561.882 630.013, 573.594 629.739, 573.756 629.577 C 574.037 629.297, 576.946 612.320, 576.983 610.750 C 576.992 610.337, 575.258 610, 573.130 610 C 569.387 610, 569.218 610.150, 567.979 614.576 C 566.242 620.778, 563.850 622.135, 554.294 622.336 C 542.675 622.580, 543 622.920, 543 610.531 L 543 600 554.393 600 C 566.763 600, 567 599.888, 567 594.050 L 567 591.264 555.500 591.771 L 544 592.279 544.015 582.889 C 544.024 577.725, 544.418 572.889, 544.891 572.142 C 546.009 570.378, 562.295 570.893, 564.152 572.751 C 564.840 573.440, 565.425 575.801, 565.451 577.998 C 565.492 581.314, 565.840 581.992, 567.500 581.983 C 572.969 581.955, 573.710 581.139, 574.401 574.388 C 574.764 570.842, 575.329 566.605, 575.656 564.971 C 576.155 562.475, 575.950 562.037, 574.375 562.231 C 573.344 562.359, 561.638 562.592, 548.362 562.749 M 723.250 562.749 L 699 563.036 699 566.018 C 699 568.463, 699.414 569, 701.300 569 C 705.818 569, 706 570.014, 706 595.245 L 706 619.091 703.545 621.545 C 702.195 622.895, 700.448 624, 699.662 624 C 698.189 624, 696.627 629.109, 697.827 630 C 698.197 630.275, 709.961 630.275, 723.969 630 L 749.438 629.500 750.643 622 C 752.581 609.936, 752.594 610, 748.207 610 C 744.561 610, 744.369 610.173, 743.220 614.469 C 741.557 620.687, 738.889 622.184, 729.166 622.359 C 718.212 622.556, 717.858 622.160, 718.216 610.099 L 718.500 600.500 729.486 600.214 C 735.529 600.056, 740.762 599.606, 741.115 599.214 C 741.468 598.821, 742.045 596.877, 742.397 594.892 L 743.037 591.285 730.893 591.785 L 718.749 592.285 719.160 582.892 C 719.386 577.727, 719.920 572.938, 720.345 572.250 C 720.858 571.420, 723.785 571, 729.059 571 C 738.400 571, 741 572.633, 741 578.500 C 741 582.168, 741.946 582.658, 746.610 581.406 C 748.406 580.924, 748.889 579.628, 749.861 572.670 C 751.332 562.144, 751.321 561.958, 749.250 562.231 C 748.288 562.359, 736.587 562.592, 723.250 562.749 M 198.630 565.250 C 197.682 568.787, 197.818 569, 201.025 569 C 203.351 569, 204.275 569.592, 205.025 571.565 C 205.561 572.976, 206 583.480, 206 594.908 C 206 614.731, 206.107 615.888, 208.328 620.093 C 209.857 622.988, 212.317 625.529, 215.500 627.500 C 220.030 630.305, 220.969 630.496, 229.923 630.436 C 241.125 630.362, 248.100 627.928, 252.953 622.401 C 257.309 617.440, 257.988 613.407, 257.994 592.473 C 258 572.175, 258.685 569, 263.057 569 C 264.549 569, 265 568.304, 265 566 L 265 563 253.107 563 C 243.185 563, 241.113 563.262, 240.607 564.582 C 239.353 567.849, 239.968 569, 242.965 569 C 244.873 569, 246.299 569.690, 246.965 570.934 C 247.581 572.086, 248 581.124, 248 593.286 C 248 612.890, 247.909 613.840, 245.717 617.102 C 241.314 623.653, 228.063 624.408, 222.516 618.423 C 218.429 614.013, 217.657 608.569, 218.447 589.723 C 219.178 572.272, 219.982 569, 223.538 569 C 224.597 569, 225.943 566.113, 225.986 563.750 C 225.994 563.337, 219.977 563, 212.617 563 C 199.583 563, 199.218 563.059, 198.630 565.250 M 277 565.937 C 277 568.507, 277.398 568.912, 280.192 569.187 C 282.901 569.452, 283.523 570.031, 284.298 573 C 285.630 578.103, 284.683 617.953, 283.164 620.738 C 282.492 621.969, 280.830 623.255, 279.471 623.597 C 277.499 624.092, 277 624.851, 277 627.358 L 277.001 630.500 300.750 630.361 L 324.500 630.222 326.180 618.374 C 327.104 611.858, 327.712 606.379, 327.532 606.199 C 326.781 605.447, 319.816 607.344, 319.534 608.376 C 319.366 608.994, 318.709 611.412, 318.075 613.748 C 317.440 616.084, 316.018 618.837, 314.914 619.866 C 312.464 622.148, 303.206 623.409, 299.433 621.975 L 296.732 620.948 297.195 597.724 C 297.492 582.850, 298.076 573.720, 298.821 572.331 C 299.460 571.138, 301.337 569.865, 302.992 569.502 C 305.499 568.951, 306 568.354, 306 565.921 L 306 563 291.500 563 L 277 563 277 565.937 M 335 565.937 C 335 568.519, 335.392 568.911, 338.250 569.187 L 341.500 569.500 341.768 594.283 C 341.939 610.142, 341.658 619.770, 340.989 621.021 C 340.413 622.097, 338.830 623.255, 337.471 623.597 C 336.022 623.960, 334.938 624.999, 334.850 626.108 C 334.767 627.149, 334.655 628.460, 334.600 629.023 C 334.535 629.691, 342.821 630.093, 358.500 630.181 L 382.500 630.315 383.935 618.676 C 384.724 612.274, 385.150 606.817, 384.882 606.549 C 384.614 606.281, 382.774 606.325, 380.794 606.646 C 377.407 607.196, 377.152 607.501, 376.511 611.778 C 375.564 618.087, 371.988 621.479, 365.353 622.359 C 358.414 623.279, 355.409 622.008, 354.635 617.822 C 354.297 615.995, 354.453 605.050, 354.983 593.500 C 355.882 573.873, 356.084 572.386, 358.083 570.750 C 359.259 569.788, 361.072 569, 362.111 569 C 363.543 569, 364 568.275, 364 566 L 364 563 349.500 563 L 335 563 335 565.937 M 585 565.981 C 585 568.310, 585.536 569.096, 587.447 569.576 C 588.793 569.914, 590.629 571.311, 591.526 572.680 C 593.234 575.286, 601.619 601.795, 606.594 620.317 L 609.500 631.135 614 630.530 C 624.475 629.121, 623.111 630.790, 629.991 610.946 C 633.413 601.076, 636.542 593, 636.943 593 C 637.616 593, 644.326 615.034, 647.097 626.342 L 648.284 631.185 652.892 630.554 C 663.185 629.147, 661.696 631.091, 670.390 607.715 C 684.239 570.477, 684.041 570.938, 686.616 569.765 C 688.313 568.992, 689 567.861, 689 565.839 L 689 563 675.500 563 L 662 563 662 566 C 662 568.603, 662.364 569.002, 664.750 569.014 C 669.977 569.040, 672 570.077, 672 572.730 C 672 575.388, 659.675 613.468, 657.995 616 C 657.244 617.132, 656.807 617.203, 656.215 616.289 C 655.783 615.623, 652.989 605.336, 650.005 593.429 C 644.745 572.437, 644.638 571.738, 646.481 570.390 C 647.527 569.625, 649.646 569, 651.191 569 C 653.645 569, 654 568.621, 654 566 L 654 563 638.607 563 C 625.493 563, 623.124 563.234, 622.607 564.582 C 621.517 567.423, 621.966 569, 623.865 569 C 626.862 569, 630.876 572.821, 631.526 576.293 C 631.975 578.688, 630.683 583.679, 626.426 596 C 618.761 618.187, 619.060 617.461, 618.022 616.413 C 616.828 615.207, 607 577.144, 607 573.727 C 607 570.896, 609.380 569, 612.934 569 C 614.070 569, 615 568.362, 615 567.582 C 615 566.802, 615.273 565.452, 615.607 564.582 C 616.145 563.181, 614.428 563, 600.607 563 L 585 563 585 565.981 M 766.630 565.250 C 765.688 568.767, 765.823 569, 768.800 569 C 773.870 569, 774.001 569.642, 773.986 594.450 C 773.979 607.128, 773.706 618.496, 773.379 619.714 C 773.053 620.931, 771.466 622.506, 769.854 623.214 C 767.248 624.357, 764.984 628.318, 766.227 629.560 C 767.086 630.419, 813.181 630.220, 813.934 629.354 C 814.843 628.308, 817.404 607.070, 816.705 606.372 C 816.430 606.096, 814.626 606.167, 812.696 606.529 C 809.633 607.104, 809.101 607.648, 808.508 610.809 C 807.598 615.661, 805.412 619.709, 803.007 620.996 C 801.922 621.577, 798.292 622.153, 794.940 622.276 C 785.602 622.619, 785.658 622.780, 786.449 597.878 C 786.810 586.536, 787.450 575.961, 787.873 574.378 C 788.330 572.670, 789.833 570.890, 791.571 570 C 795.030 568.229, 795.964 567.117, 795.985 564.750 C 795.999 563.164, 794.654 563, 781.617 563 C 767.546 563, 767.220 563.049, 766.630 565.250 M 824.607 564.582 C 823.374 567.794, 823.973 569, 826.800 569 C 831.878 569, 832 569.608, 832 594.977 C 832 620.500, 831.707 622.020, 826.399 624.038 C 824.662 624.699, 824 625.717, 824 627.725 L 824.001 630.500 847.715 630.356 L 871.430 630.211 872.123 627.856 C 873.183 624.253, 875.261 606.927, 874.700 606.366 C 874.427 606.094, 872.669 606.159, 870.792 606.511 C 867.637 607.103, 867.232 607.619, 865.439 613.326 C 863.169 620.553, 861.056 622.010, 852.415 622.308 C 843.665 622.610, 843.664 622.608, 844.397 597.383 C 845.083 573.787, 845.754 570.433, 849.974 569.506 C 852.462 568.959, 853.930 566.854, 853.986 563.750 C 853.994 563.337, 847.523 563, 839.607 563 C 827.405 563, 825.122 563.241, 824.607 564.582 M 416.500 590.567 C 411 591.299, 404.172 592.174, 401.327 592.512 C 396.235 593.115, 396.145 593.185, 395.496 597.026 C 395.133 599.171, 395.074 601.310, 395.364 601.780 C 395.815 602.510, 426.700 599.651, 427.520 598.804 C 427.841 598.472, 428.264 592.254, 428.101 590.250 C 428.046 589.563, 427.663 589.053, 427.250 589.118 C 426.837 589.183, 422 589.835, 416.500 590.567" stroke="none" fill="#080808" fill-rule="evenodd"/></svg>